<svg width="123" height="30" viewBox="0 0 123 30" fill="none" xmlns="http://www.w3.org/2000/svg">
<g clip-path="url(#clip0_1_516)">
<path d="M1.72159 22.6016V5.14702H8.40341C9.66477 5.14702 10.7131 5.34588 11.5483 5.74361C12.3892 6.13565 13.017 6.67259 13.4318 7.3544C13.8523 8.03622 14.0625 8.80895 14.0625 9.67259C14.0625 10.3828 13.9261 10.9908 13.6534 11.4964C13.3807 11.9964 13.0142 12.4027 12.554 12.7152C12.0938 13.0277 11.5795 13.2521 11.0114 13.3885V13.5589C11.6307 13.593 12.2244 13.7834 12.7926 14.13C13.3665 14.4709 13.8352 14.9538 14.1989 15.5788C14.5625 16.2038 14.7443 16.9595 14.7443 17.8459C14.7443 18.7493 14.5256 19.5618 14.0881 20.2834C13.6506 20.9993 12.9915 21.5646 12.1108 21.9794C11.2301 22.3942 10.1222 22.6016 8.78693 22.6016H1.72159ZM4.88352 19.9595H8.28409C9.43182 19.9595 10.2585 19.7408 10.7642 19.3033C11.2756 18.8601 11.5312 18.2919 11.5312 17.5987C11.5312 17.0817 11.4034 16.6158 11.1477 16.201C10.892 15.7805 10.5284 15.451 10.0568 15.2124C9.58523 14.968 9.02273 14.8459 8.36932 14.8459H4.88352V19.9595ZM4.88352 12.5703H8.01136C8.55682 12.5703 9.0483 12.4709 9.4858 12.272C9.9233 12.0675 10.267 11.7805 10.517 11.4112C10.7727 11.0362 10.9006 10.593 10.9006 10.0817C10.9006 9.40554 10.6619 8.84872 10.1847 8.41122C9.71307 7.97372 9.01136 7.75497 8.07955 7.75497H4.88352V12.5703ZM17.3587 22.6016V9.51065H20.4439V22.6016H17.3587ZM18.9098 7.6527C18.4212 7.6527 18.0007 7.49077 17.6484 7.1669C17.2962 6.83736 17.12 6.44247 17.12 5.98224C17.12 5.51633 17.2962 5.12145 17.6484 4.79758C18.0007 4.46804 18.4212 4.30327 18.9098 4.30327C19.4041 4.30327 19.8246 4.46804 20.1712 4.79758C20.5234 5.12145 20.6996 5.51633 20.6996 5.98224C20.6996 6.44247 20.5234 6.83736 20.1712 7.1669C19.8246 7.49077 19.4041 7.6527 18.9098 7.6527ZM30.1534 9.51065V11.897H22.6278V9.51065H30.1534ZM24.4858 6.37429H27.571V18.6641C27.571 19.0788 27.6335 19.397 27.7585 19.6186C27.8892 19.8345 28.0597 19.9822 28.2699 20.0618C28.4801 20.1413 28.7131 20.1811 28.9688 20.1811C29.1619 20.1811 29.3381 20.1669 29.4972 20.1385C29.6619 20.1101 29.7869 20.0845 29.8722 20.0618L30.392 22.4737C30.2273 22.5305 29.9915 22.593 29.6847 22.6612C29.3835 22.7294 29.0142 22.7692 28.5767 22.7805C27.804 22.8033 27.108 22.6868 26.4886 22.4311C25.8693 22.1697 25.3778 21.7663 25.0142 21.2209C24.6563 20.6754 24.4801 19.9936 24.4858 19.1754V6.37429ZM38.3033 22.8572C36.9964 22.8572 35.8743 22.5703 34.9368 21.9964C34.005 21.4226 33.2862 20.63 32.7805 19.6186C32.2805 18.6016 32.0305 17.4311 32.0305 16.1072C32.0305 14.7777 32.2862 13.6044 32.7976 12.5874C33.3089 11.5646 34.0305 10.7692 34.9624 10.201C35.8999 9.62713 37.0078 9.3402 38.2862 9.3402C39.3487 9.3402 40.2891 9.53622 41.1072 9.92827C41.9311 10.3146 42.5874 10.8629 43.076 11.5732C43.5646 12.2777 43.843 13.1016 43.9112 14.0447H40.9624C40.843 13.4141 40.5589 12.8885 40.1101 12.468C39.6669 12.0419 39.0732 11.8288 38.3288 11.8288C37.6982 11.8288 37.1442 11.9993 36.6669 12.3402C36.1896 12.6754 35.8175 13.1584 35.5504 13.7891C35.2891 14.4197 35.1584 15.1754 35.1584 16.0561C35.1584 16.9482 35.2891 17.7152 35.5504 18.3572C35.8118 18.9936 36.1783 19.4851 36.6499 19.8317C37.1271 20.1726 37.6868 20.343 38.3288 20.343C38.7834 20.343 39.1896 20.2578 39.5476 20.0874C39.9112 19.9112 40.2152 19.6584 40.4595 19.3288C40.7038 18.9993 40.8714 18.5987 40.9624 18.1271H43.9112C43.8374 19.0533 43.5646 19.8743 43.093 20.5902C42.6214 21.3004 41.9794 21.8572 41.1669 22.2607C40.3544 22.6584 39.3999 22.8572 38.3033 22.8572ZM52.1548 22.8572C50.8764 22.8572 49.7685 22.576 48.831 22.0135C47.8935 21.451 47.1662 20.6641 46.6491 19.6527C46.1378 18.6413 45.8821 17.4595 45.8821 16.1072C45.8821 14.755 46.1378 13.5703 46.6491 12.5533C47.1662 11.5362 47.8935 10.7464 48.831 10.1839C49.7685 9.62145 50.8764 9.3402 52.1548 9.3402C53.4332 9.3402 54.5412 9.62145 55.4787 10.1839C56.4162 10.7464 57.1406 11.5362 57.652 12.5533C58.169 13.5703 58.4276 14.755 58.4276 16.1072C58.4276 17.4595 58.169 18.6413 57.652 19.6527C57.1406 20.6641 56.4162 21.451 55.4787 22.0135C54.5412 22.576 53.4332 22.8572 52.1548 22.8572ZM52.1719 20.3857C52.8651 20.3857 53.4446 20.1953 53.9105 19.8146C54.3764 19.4283 54.723 18.9112 54.9503 18.2635C55.1832 17.6158 55.2997 16.8942 55.2997 16.0987C55.2997 15.2976 55.1832 14.5732 54.9503 13.9254C54.723 13.272 54.3764 12.7521 53.9105 12.3658C53.4446 11.9794 52.8651 11.7862 52.1719 11.7862C51.4616 11.7862 50.8707 11.9794 50.3991 12.3658C49.9332 12.7521 49.5838 13.272 49.3509 13.9254C49.1236 14.5732 49.0099 15.2976 49.0099 16.0987C49.0099 16.8942 49.1236 17.6158 49.3509 18.2635C49.5838 18.9112 49.9332 19.4283 50.3991 19.8146C50.8707 20.1953 51.4616 20.3857 52.1719 20.3857ZM61.0462 22.6016V9.51065H64.1314V22.6016H61.0462ZM62.5973 7.6527C62.1087 7.6527 61.6882 7.49077 61.3359 7.1669C60.9837 6.83736 60.8075 6.44247 60.8075 5.98224C60.8075 5.51633 60.9837 5.12145 61.3359 4.79758C61.6882 4.46804 62.1087 4.30327 62.5973 4.30327C63.0916 4.30327 63.5121 4.46804 63.8587 4.79758C64.2109 5.12145 64.3871 5.51633 64.3871 5.98224C64.3871 6.44247 64.2109 6.83736 63.8587 7.1669C63.5121 7.49077 63.0916 7.6527 62.5973 7.6527ZM70.3892 14.9311V22.6016H67.304V9.51065H70.2528V11.7351H70.4062C70.7074 11.0021 71.1875 10.4197 71.8466 9.98793C72.5114 9.55611 73.3324 9.3402 74.3097 9.3402C75.2131 9.3402 76 9.53338 76.6705 9.91974C77.3466 10.3061 77.8693 10.8658 78.2386 11.5987C78.6136 12.3317 78.7983 13.2209 78.7926 14.2663V22.6016H75.7074V14.7436C75.7074 13.8686 75.4801 13.1839 75.0256 12.6896C74.5767 12.1953 73.9545 11.9482 73.1591 11.9482C72.6193 11.9482 72.1392 12.0675 71.7188 12.3061C71.304 12.5391 70.9773 12.8771 70.7386 13.3203C70.5057 13.7635 70.3892 14.3004 70.3892 14.9311Z" fill="#0B1426"/>
</g>
<path d="M90.4759 20V8.36364H94.9304C95.7713 8.36364 96.4702 8.49621 97.027 8.76136C97.5876 9.02273 98.0062 9.38068 98.2827 9.83523C98.563 10.2898 98.7031 10.8049 98.7031 11.3807C98.7031 11.8542 98.6122 12.2595 98.4304 12.5966C98.2486 12.9299 98.0043 13.2008 97.6974 13.4091C97.3906 13.6174 97.0478 13.767 96.669 13.858V13.9716C97.0819 13.9943 97.4777 14.1212 97.8565 14.3523C98.2391 14.5795 98.5516 14.9015 98.794 15.3182C99.0365 15.7348 99.1577 16.2386 99.1577 16.8295C99.1577 17.4318 99.0118 17.9735 98.7202 18.4545C98.4285 18.9318 97.9891 19.3087 97.402 19.5852C96.8149 19.8617 96.0762 20 95.1861 20H90.4759ZM92.5838 18.2386H94.8509C95.616 18.2386 96.1671 18.0928 96.5043 17.8011C96.8452 17.5057 97.0156 17.1269 97.0156 16.6648C97.0156 16.3201 96.9304 16.0095 96.7599 15.733C96.5895 15.4527 96.3471 15.233 96.0327 15.0739C95.7183 14.911 95.3433 14.8295 94.9077 14.8295H92.5838V18.2386ZM92.5838 13.3125H94.669C95.0327 13.3125 95.3603 13.2462 95.652 13.1136C95.9437 12.9773 96.1728 12.786 96.3395 12.5398C96.5099 12.2898 96.5952 11.9943 96.5952 11.6534C96.5952 11.2027 96.4361 10.8314 96.1179 10.5398C95.8035 10.2481 95.3357 10.1023 94.7145 10.1023H92.5838V13.3125ZM100.48 10.1307V8.36364H109.764V10.1307H106.168V20H104.077V10.1307H100.48ZM120.999 12.2898H118.874C118.813 11.9413 118.701 11.6326 118.538 11.3636C118.375 11.0909 118.173 10.8598 117.93 10.6705C117.688 10.4811 117.411 10.339 117.101 10.2443C116.794 10.1458 116.463 10.0966 116.107 10.0966C115.474 10.0966 114.913 10.2557 114.425 10.5739C113.936 10.8883 113.554 11.3504 113.277 11.9602C113 12.5663 112.862 13.3068 112.862 14.1818C112.862 15.072 113 15.822 113.277 16.4318C113.557 17.0379 113.94 17.4962 114.425 17.8068C114.913 18.1136 115.472 18.267 116.101 18.267C116.449 18.267 116.775 18.2216 117.078 18.1307C117.385 18.036 117.66 17.8977 117.902 17.7159C118.148 17.5341 118.355 17.3106 118.521 17.0455C118.692 16.7803 118.809 16.4773 118.874 16.1364L120.999 16.1477C120.919 16.7008 120.747 17.2197 120.482 17.7045C120.22 18.1894 119.877 18.6174 119.453 18.9886C119.029 19.3561 118.533 19.6439 117.964 19.8523C117.396 20.0568 116.766 20.1591 116.072 20.1591C115.05 20.1591 114.137 19.9223 113.334 19.4489C112.531 18.9754 111.898 18.2917 111.436 17.3977C110.974 16.5038 110.743 15.4318 110.743 14.1818C110.743 12.928 110.976 11.8561 111.442 10.9659C111.908 10.072 112.542 9.38826 113.345 8.91477C114.148 8.44129 115.057 8.20455 116.072 8.20455C116.72 8.20455 117.322 8.29545 117.879 8.47727C118.436 8.65909 118.932 8.92614 119.368 9.27841C119.804 9.62689 120.161 10.0549 120.442 10.5625C120.726 11.0663 120.911 11.642 120.999 12.2898Z" fill="#5D667B"/>
<defs>
<clipPath id="clip0_1_516">
<rect width="81.3281" height="28.7969" fill="white" transform="translate(0 0.601562)"/>
</clipPath>
</defs>
</svg>
